<svg width="512" height="512" viewBox="0 0 512 512" fill="none" xmlns="http://www.w3.org/2000/svg">
  <defs>
    <radialGradient id="halo" cx="0" cy="0" r="1" gradientUnits="userSpaceOnUse" gradientTransform="translate(256 238) rotate(90) scale(230)">
      <stop stop-color="#A2C3FF" stop-opacity="0.46"/>
      <stop offset="1" stop-color="#A2C3FF" stop-opacity="0"/>
    </radialGradient>
    <linearGradient id="ring" x1="72" y1="70" x2="436" y2="440" gradientUnits="userSpaceOnUse">
      <stop stop-color="#4F78FF"/>
      <stop offset="1" stop-color="#5B36B8"/>
    </linearGradient>
    <linearGradient id="frame" x1="84" y1="78" x2="428" y2="410" gradientUnits="userSpaceOnUse">
      <stop stop-color="#F5AF78"/>
      <stop offset="0.5" stop-color="#E18347"/>
      <stop offset="1" stop-color="#C9602B"/>
    </linearGradient>
    <linearGradient id="screen" x1="130" y1="122" x2="382" y2="366" gradientUnits="userSpaceOnUse">
      <stop stop-color="#DFF3FF"/>
      <stop offset="1" stop-color="#8CB7D2"/>
    </linearGradient>
    <linearGradient id="glow" x1="246" y1="170" x2="324" y2="318" gradientUnits="userSpaceOnUse">
      <stop stop-color="#FFFFFF" stop-opacity="0.95"/>
      <stop offset="1" stop-color="#F4FAFF" stop-opacity="0.06"/>
    </linearGradient>
    <filter id="shadow" x="54" y="58" width="404" height="414" filterUnits="userSpaceOnUse" color-interpolation-filters="sRGB">
      <feFlood flood-opacity="0" result="BackgroundImageFix"/>
      <feColorMatrix in="SourceAlpha" type="matrix" values="0 0 0 0 0 0 0 0 0 0 0 0 0 0 0 0 0 0 127 0" result="hardAlpha"/>
      <feOffset dy="20"/>
      <feGaussianBlur stdDeviation="16"/>
      <feColorMatrix type="matrix" values="0 0 0 0 0.071 0 0 0 0 0.102 0 0 0 0 0.228 0 0 0 0.34 0"/>
      <feBlend mode="normal" in2="BackgroundImageFix" result="effect1_dropShadow_1_1"/>
      <feBlend mode="normal" in="SourceGraphic" in2="effect1_dropShadow_1_1" result="shape"/>
    </filter>
  </defs>
  <rect width="512" height="512" rx="116" fill="url(#ring)"/>
  <circle cx="256" cy="238" r="224" fill="url(#halo)"/>
  <circle cx="162" cy="146" r="82" fill="#FFFFFF" fill-opacity="0.1"/>
  <circle cx="392" cy="390" r="76" fill="#050816" fill-opacity="0.12"/>
  <g filter="url(#shadow)">
    <rect x="84" y="78" width="344" height="332" rx="62" fill="url(#frame)"/>
    <rect x="114" y="104" width="284" height="280" rx="32" fill="#213444"/>
    <rect x="130" y="122" width="252" height="244" rx="22" fill="url(#screen)"/>
    <rect x="140" y="132" width="232" height="11" rx="5.5" fill="#1C2A35" fill-opacity="0.92"/>
    <rect x="140" y="346" width="232" height="11" rx="5.5" fill="#1C2A35" fill-opacity="0.92"/>
    <circle cx="152" cy="137.5" r="1.9" fill="#F8FAFC" fill-opacity="0.84"/>
    <rect x="160" y="135.5" width="52" height="4" rx="2" fill="#F8FAFC" fill-opacity="0.45"/>
    <circle cx="100" cy="244" r="3.6" fill="#7A421E"/>
    <circle cx="412" cy="244" r="3.6" fill="#7A421E"/>
    <circle cx="100" cy="244" r="1.3" fill="#F2B48E" fill-opacity="0.74"/>
    <circle cx="412" cy="244" r="1.3" fill="#F2B48E" fill-opacity="0.74"/>
    <path d="M288 174H308V214H346V232H308V320H288V232H250V214H288V174Z" fill="url(#glow)"/>
    <path d="M192 196H232C261.823 196 286 220.177 286 250V260C286 293.137 259.137 320 226 320H192V196ZM211 214V302H225C250.405 302 271 281.405 271 256V250C271 230.118 254.882 214 235 214H211Z" fill="#F43F3F"/>
    <path d="M256 196H348V214H312V320H293V214H256V196Z" fill="#C62828"/>
  </g>
</svg>